<?xml version="1.0" standalone="no"?>
<!DOCTYPE svg PUBLIC "-//W3C//DTD SVG 20010904//EN"
 "http://www.w3.org/TR/2001/REC-SVG-20010904/DTD/svg10.dtd">
<svg version="1.0" xmlns="http://www.w3.org/2000/svg"
 width="251.000000pt" height="201.000000pt" viewBox="0 0 251.000000 201.000000"
 preserveAspectRatio="xMidYMid meet">

<g transform="translate(0.000000,201.000000) scale(0.100000,-0.100000)"
fill="#000000" stroke="none">
<path d="M1192 1709 c-113 -19 -221 -102 -270 -207 -26 -54 -27 -66 -30 -239
l-4 -183 -29 0 c-38 0 -76 -37 -84 -81 -3 -19 -5 -173 -3 -342 l3 -309 28 -24
28 -24 424 0 424 0 28 24 28 24 3 309 c2 169 0 323 -3 342 -8 44 -46 81 -84
81 l-29 0 -4 183 c-3 173 -4 185 -30 239 -47 100 -155 187 -254 203 -76 12
-89 13 -142 4z m173 -213 c63 -49 75 -88 75 -263 l0 -153 -185 0 -185 0 0 153
c0 193 16 233 105 282 48 26 143 16 190 -19z m-39 -610 c41 -41 46 -89 13
-130 -21 -26 -21 -32 -10 -127 6 -55 11 -113 11 -129 l0 -30 -85 0 -85 0 0 35
c0 20 5 78 11 131 10 89 9 96 -10 121 -33 40 -28 88 13 129 26 26 42 34 71 34
29 0 45 -8 71 -34z"/>
</g>
</svg>
